# Blender v3.2.0 OBJ File: ''
# www.blender.org
mtllib Rock1.mtl
o Rock_Icosphere.004
v 0.059462 -0.035526 -0.255500
v -0.029755 0.131436 -0.428009
v -0.257378 -0.021056 -0.405687
v 0.227025 -0.025636 -0.350037
v 0.205612 0.127464 -0.398346
v 0.000685 -0.013904 -0.648395
v 0.300120 -0.027070 0.400600
v -0.518960 -0.004506 -0.010935
v 0.032882 0.381353 -0.132690
v 0.341627 -0.011526 -0.002968
v 0.232512 0.277790 -0.020116
v -0.028321 -0.027766 -0.245363
v -0.275048 -0.026995 0.510737
v -0.201251 0.193484 0.375596
v 0.165476 0.276854 0.361873
v -0.166675 0.321238 -0.001176
vn -0.0782 0.6958 0.7139
vn 0.4500 0.3254 0.8316
vn -0.3234 0.5909 0.7391
vn 0.0021 -0.9950 -0.1003
vn 0.0823 0.8372 -0.5407
vn -0.5096 0.6843 -0.5216
vn -0.0054 -0.9994 -0.0352
vn 0.7926 -0.0799 -0.6044
vn 0.0076 0.1297 0.9915
vn -0.0078 -0.9992 -0.0394
vn -0.0077 -0.9992 -0.0394
vn -0.0078 -0.9992 -0.0393
vn 0.5425 0.1466 -0.8271
vn 0.5397 0.1500 -0.8284
vn 0.5422 0.1470 -0.8273
vn -0.5862 0.2955 -0.7544
vn -0.3730 0.4281 -0.8232
vn -0.0089 -0.9967 0.0803
vn 0.5369 0.1533 -0.8296
vn -0.7779 0.4965 0.3851
vn -0.2010 0.9332 0.2980
vn -0.0077 -0.9992 -0.0395
vn -0.1324 0.9620 0.2388
vn 0.4247 0.9021 0.0767
vn -0.6702 0.7194 0.1824
vn 0.1656 0.4745 0.8645
vn 0.9036 0.4142 0.1089
vn 0.9200 0.3566 0.1623
usemtl Rock
s 1
f 1//1 5//1 2//1
f 5//2 1//2 4//2
f 1//3 2//3 3//3
f 1//4 3//4 4//4
f 2//5 5//5 6//5
f 3//6 2//6 6//6
f 4//7 3//7 6//7
f 5//8 4//8 6//8
f 7//9 15//9 14//9
f 7//10 8//11 10//12
f 9//13 11//14 12//15
f 16//16 9//16 12//16
f 8//17 16//17 12//17
f 10//18 8//18 12//18
f 11//14 10//19 12//15
f 13//20 14//20 8//20
f 15//21 16//21 14//21
f 7//10 13//22 8//11
f 16//23 15//23 9//23
f 15//24 11//24 9//24
f 14//25 16//25 8//25
f 13//26 7//26 14//26
f 7//27 10//27 15//27
f 10//28 11//28 15//28
