# Blender v3.2.0 OBJ File: ''
# www.blender.org
mtllib ColumnBroken2.mtl
o ColumnBroken2_Cylinder.007
v 0.000000 0.007210 -1.000000
v 0.707107 0.007211 -0.707107
v 1.000000 0.007211 0.000000
v 0.707107 0.007211 0.707107
v -0.000000 0.007211 1.000000
v -0.707107 0.007211 0.707107
v -1.000000 0.007211 -0.000000
v -0.707107 0.007211 -0.707107
v -0.000000 0.207210 -1.000000
v 0.707107 0.207211 -0.707107
v 1.000000 0.207211 0.000000
v 0.707107 0.207211 0.707107
v -0.000000 0.207211 1.000000
v -0.707107 0.207211 0.707107
v -1.000000 0.207211 -0.000000
v -0.707107 0.207211 -0.707107
v -0.000000 0.207211 -0.800000
v 0.565685 0.207211 -0.565686
v 0.800000 0.207211 -0.000000
v 0.565685 0.207211 0.565685
v -0.000000 0.207211 0.800000
v -0.565686 0.207211 0.565685
v -0.800000 0.207211 -0.000000
v -0.565686 0.207211 -0.565685
v -0.000000 0.407211 -0.800000
v 0.565685 0.407211 -0.565686
v 0.800000 0.407211 -0.000000
v 0.565685 0.407211 0.565685
v -0.000000 0.407211 0.800000
v -0.565686 0.407211 0.565685
v -0.800000 0.407211 -0.000000
v -0.565686 0.407211 -0.565685
v -0.000000 0.407211 -0.640000
v 0.452548 0.407211 -0.452548
v 0.640000 0.407211 -0.000000
v 0.452548 0.407211 0.452548
v -0.000000 0.407211 0.640000
v -0.452548 0.407211 0.452548
v -0.640000 0.407211 -0.000000
v -0.452548 0.407211 -0.452548
v -0.000000 0.607211 -0.640000
v 0.452548 0.607211 -0.452548
v 0.640000 0.607211 -0.000000
v 0.452548 0.607211 0.452548
v -0.000000 0.607211 0.640000
v -0.452548 0.607211 0.452548
v -0.640000 0.607211 -0.000000
v -0.452548 0.607211 -0.452548
v -0.000000 0.607211 -0.512000
v 0.362039 0.607211 -0.362039
v 0.512000 0.607211 -0.000000
v 0.362039 0.607211 0.362039
v -0.000000 0.607211 0.512000
v -0.362039 0.607211 0.362039
v -0.512000 0.607211 -0.000000
v -0.362039 0.607211 -0.362039
v 0.512000 1.586580 -0.000000
v 0.362039 1.586580 0.362038
v -0.000000 1.586580 -0.512000
v 0.362039 1.586580 -0.362039
v -0.362039 1.597250 -0.362039
v -0.362039 1.597250 0.362038
v -0.512000 1.615408 -0.000000
v -0.000000 1.586580 0.512000
v 0.333523 1.586580 0.333523
v 0.333523 1.586580 -0.333523
v -0.471673 1.615408 -0.000000
v -0.000000 1.586580 0.471673
v 0.471673 1.586580 -0.000000
v -0.000000 1.586580 -0.471673
v -0.333523 1.598346 -0.333523
v -0.333523 1.598346 0.333523
v 0.350700 1.510759 0.350700
v 0.350700 1.510759 -0.350701
v -0.495965 1.521833 -0.000000
v -0.000000 1.510759 0.495965
v 0.495965 1.510759 -0.000000
v -0.000000 1.510759 -0.495965
v -0.350700 1.512549 -0.350701
v -0.350700 1.512549 0.350700
v 0.347785 2.524128 0.347785
v 0.347785 2.524128 -0.347785
v -0.491842 2.855404 -0.000000
v -0.000000 2.605518 0.491842
v 0.491842 2.506499 -0.000000
v -0.000000 2.605519 -0.491843
v -0.347785 2.757742 -0.347785
v -0.347785 2.757742 0.347784
vn 0.0000 -1.0000 0.0000
vn 0.0000 1.0000 -0.0000
vn 0.9239 0.0000 0.3827
vn 0.3827 -0.0000 -0.9239
vn -0.3827 -0.0000 -0.9239
vn -0.9239 -0.0000 0.3827
vn 0.3827 0.0000 0.9239
vn 0.9239 0.0000 -0.3827
vn -0.9239 -0.0000 -0.3827
vn -0.3827 0.0000 0.9239
vn -0.0219 -0.9994 -0.0250
vn -0.0043 -0.9988 0.0488
vn -0.0043 -0.9988 -0.0488
vn -0.0219 -0.9994 0.0250
vn 0.8859 0.2838 0.3669
vn 0.3669 0.2838 -0.8859
vn -0.3642 0.2676 -0.8921
vn -0.3642 0.2676 -0.8920
vn -0.8929 0.2428 0.3792
vn 0.3669 0.2838 0.8859
vn 0.8859 0.2838 -0.3669
vn -0.8929 0.2428 -0.3792
vn -0.8929 0.2427 -0.3792
vn -0.3642 0.2676 0.8921
vn -0.3642 0.2676 0.8920
vn -0.3826 0.0164 0.9238
vn -0.9237 0.0163 -0.3827
vn -0.9236 0.0162 -0.3829
vn -0.9238 0.0164 -0.3826
vn 0.9238 0.0164 -0.3826
vn 0.3826 0.0164 0.9238
vn -0.9237 0.0163 0.3827
vn -0.9236 0.0162 0.3829
vn -0.9236 0.0162 0.3830
vn -0.3826 0.0164 -0.9238
vn 0.3826 0.0164 -0.9238
vn 0.9238 0.0164 0.3826
vn -0.3793 0.0171 0.9251
vn -0.9229 0.0156 -0.3847
vn -0.9228 0.0155 -0.3849
vn -0.9229 0.0155 -0.3848
vn 0.9238 0.0201 -0.3824
vn 0.9238 0.0201 -0.3822
vn 0.9239 0.0201 -0.3822
vn 0.3845 0.0190 0.9229
vn -0.9229 0.0156 0.3847
vn -0.9228 0.0155 0.3849
vn -0.9229 0.0155 0.3848
vn -0.3793 0.0171 -0.9251
vn -0.3792 0.0171 -0.9251
vn 0.3844 0.0190 -0.9230
vn 0.3845 0.0190 -0.9229
vn 0.9238 0.0201 0.3824
vn 0.9240 0.0199 0.3820
vn 0.9239 0.0200 0.3820
vn 0.3264 0.9452 0.0000
vn -0.8929 0.2427 0.3792
vn -0.9236 0.0162 -0.3830
vn -0.9238 0.0164 0.3826
vn 0.9237 0.0202 0.3826
usemtl Rock.007
s 1
f 8//1 2//1 4//1
f 14//2 23//2 15//2
f 11//3 4//3 3//3
f 9//4 2//4 1//4
f 16//5 1//5 8//5
f 14//6 7//6 6//6
f 12//7 5//7 4//7
f 10//8 3//8 2//8
f 15//9 8//9 7//9
f 13//10 6//10 5//10
f 17//4 26//4 18//4
f 12//2 21//2 13//2
f 10//2 19//2 11//2
f 15//2 24//2 16//2
f 14//2 21//2 22//2
f 11//2 20//2 12//2
f 9//2 18//2 10//2
f 9//2 24//2 17//2
f 31//2 40//2 32//2
f 24//5 25//5 17//5
f 22//6 31//6 23//6
f 20//7 29//7 21//7
f 18//8 27//8 19//8
f 23//9 32//9 24//9
f 21//10 30//10 22//10
f 19//3 28//3 20//3
f 34//8 43//8 35//8
f 29//2 38//2 30//2
f 27//2 36//2 28//2
f 25//2 34//2 26//2
f 32//2 33//2 25//2
f 30//2 39//2 31//2
f 29//2 36//2 37//2
f 26//2 35//2 27//2
f 48//2 49//2 41//2
f 39//9 48//9 40//9
f 37//10 46//10 38//10
f 35//3 44//3 36//3
f 33//4 42//4 34//4
f 40//5 41//5 33//5
f 38//6 47//6 39//6
f 36//7 45//7 37//7
f 46//2 55//2 47//2
f 44//2 53//2 45//2
f 42//2 51//2 43//2
f 48//2 55//2 56//2
f 45//2 54//2 46//2
f 43//2 52//2 44//2
f 41//2 50//2 42//2
f 68//11 62//11 72//11
f 71//12 63//12 61//12
f 66//1 57//1 69//1
f 65//1 64//1 68//1
f 72//13 63//13 67//13
f 70//14 61//14 59//14
f 66//1 59//1 60//1
f 69//1 58//1 65//1
f 77//15 65//15 73//15
f 78//16 66//16 74//16
f 79//17 70//17 78//18
f 75//19 72//19 67//19
f 73//20 68//20 76//20
f 74//21 69//21 77//21
f 75//22 71//22 79//23
f 80//24 68//24 72//25
f 54//26 76//26 80//26
f 55//27 79//28 56//29
f 50//30 77//30 51//30
f 52//31 76//31 53//31
f 55//32 80//33 75//34
f 56//35 78//35 49//35
f 49//36 74//36 50//36
f 51//37 73//37 52//37
f 62//38 84//38 88//38
f 63//39 87//40 61//41
f 60//42 85//43 57//44
f 64//45 81//45 84//45
f 63//46 88//47 83//48
f 61//49 86//50 59//49
f 59//51 82//52 60//52
f 58//53 85//54 81//55
f 87//56 83//56 88//56
f 8//1 1//1 2//1
f 2//1 3//1 4//1
f 4//1 5//1 6//1
f 6//1 7//1 4//1
f 7//1 8//1 4//1
f 14//2 22//2 23//2
f 11//3 12//3 4//3
f 9//4 10//4 2//4
f 16//5 9//5 1//5
f 14//6 15//6 7//6
f 12//7 13//7 5//7
f 10//8 11//8 3//8
f 15//9 16//9 8//9
f 13//10 14//10 6//10
f 17//4 25//4 26//4
f 12//2 20//2 21//2
f 10//2 18//2 19//2
f 15//2 23//2 24//2
f 14//2 13//2 21//2
f 11//2 19//2 20//2
f 9//2 17//2 18//2
f 9//2 16//2 24//2
f 31//2 39//2 40//2
f 24//5 32//5 25//5
f 22//6 30//6 31//6
f 20//7 28//7 29//7
f 18//8 26//8 27//8
f 23//9 31//9 32//9
f 21//10 29//10 30//10
f 19//3 27//3 28//3
f 34//8 42//8 43//8
f 29//2 37//2 38//2
f 27//2 35//2 36//2
f 25//2 33//2 34//2
f 32//2 40//2 33//2
f 30//2 38//2 39//2
f 29//2 28//2 36//2
f 26//2 34//2 35//2
f 48//2 56//2 49//2
f 39//9 47//9 48//9
f 37//10 45//10 46//10
f 35//3 43//3 44//3
f 33//4 41//4 42//4
f 40//5 48//5 41//5
f 38//6 46//6 47//6
f 36//7 44//7 45//7
f 46//2 54//2 55//2
f 44//2 52//2 53//2
f 42//2 50//2 51//2
f 48//2 47//2 55//2
f 45//2 53//2 54//2
f 43//2 51//2 52//2
f 41//2 49//2 50//2
f 68//11 64//11 62//11
f 71//12 67//12 63//12
f 66//1 60//1 57//1
f 65//1 58//1 64//1
f 72//13 62//13 63//13
f 70//14 71//14 61//14
f 66//1 70//1 59//1
f 69//1 57//1 58//1
f 77//15 69//15 65//15
f 78//16 70//16 66//16
f 79//17 71//18 70//17
f 75//19 80//57 72//19
f 73//20 65//20 68//20
f 74//21 66//21 69//21
f 75//22 67//22 71//22
f 80//24 76//25 68//24
f 54//26 53//26 76//26
f 55//27 75//58 79//28
f 50//30 74//30 77//30
f 52//31 73//31 76//31
f 55//32 54//59 80//33
f 56//35 79//35 78//35
f 49//36 78//36 74//36
f 51//37 77//37 73//37
f 62//38 64//38 84//38
f 63//39 83//41 87//40
f 60//42 82//43 85//43
f 64//45 58//45 81//45
f 63//46 62//48 88//47
f 61//49 87//49 86//50
f 59//51 86//52 82//52
f 58//53 57//60 85//54
f 88//56 84//56 86//56
f 84//56 81//56 85//56
f 86//56 85//56 82//56
f 84//56 85//56 86//56
f 86//56 87//56 88//56
