# Blender v3.2.0 OBJ File: ''
# www.blender.org
mtllib Rock4.mtl
o Rock4_Icosphere
v -0.008227 -0.016757 0.415621
v 0.259098 0.311630 0.079888
v -0.165008 0.487149 0.075164
v -0.483340 -0.006572 0.088451
v -0.156653 -0.010260 0.088550
v 0.320674 -0.013805 0.088645
v 0.062184 0.385935 -0.196787
v -0.211919 0.438667 -0.072172
v -0.391027 -0.012159 -0.176673
v 0.226291 -0.017393 -0.176532
v 0.367316 0.217572 -0.182855
v -0.018121 -0.012840 -0.407319
vn 0.2370 0.5934 0.7692
vn 0.6963 0.1506 0.7018
vn -0.5242 0.3587 0.7724
vn -0.0106 -0.9998 -0.0150
vn -0.0113 -0.9998 -0.0147
vn -0.0079 -0.9998 -0.0163
vn -0.0074 -0.9998 -0.0165
vn 0.9303 0.1846 0.3171
vn 0.3825 0.9236 -0.0242
vn -0.8361 0.5415 0.0880
vn -0.0092 -0.9998 0.0175
vn -0.0113 -0.9998 0.0171
vn -0.0087 -0.9999 0.0148
vn -0.0074 -0.9998 0.0162
vn -0.0083 -0.9999 0.0150
vn 0.4840 0.8680 -0.1114
vn 0.0354 0.9459 -0.3225
vn -0.8578 0.4120 -0.3073
vn 0.8186 -0.4990 -0.2846
vn 0.2650 0.4079 -0.8737
vn -0.2802 0.4917 -0.8244
vn -0.4869 0.3762 -0.7883
vn -0.0085 -0.9999 -0.0108
vn 0.6270 -0.3944 -0.6718
usemtl Rock.003
s 1
f 1//1 2//1 3//1
f 2//2 1//2 6//2
f 1//3 3//3 4//3
f 1//4 4//5 5//6
f 1//4 5//6 6//7
f 2//8 6//8 11//8
f 3//9 2//9 7//9
f 4//10 3//10 8//10
f 5//11 4//12 9//13
f 6//14 5//11 10//15
f 2//16 11//16 7//16
f 3//17 7//17 8//17
f 4//18 8//18 9//18
f 5//11 9//13 10//15
f 6//19 10//19 11//19
f 7//20 11//20 12//20
f 8//21 7//21 12//21
f 9//22 8//22 12//22
f 10//23 9//23 12//23
f 11//24 10//24 12//24
