# Blender v3.2.0 OBJ File: ''
# www.blender.org
mtllib Rock3.mtl
o Rock3_Icosphere.002
v 0.194023 -0.025684 0.384742
v 0.245481 0.257994 0.323641
v -0.144681 0.287039 0.017421
v -0.483340 -0.008736 -0.017666
v -0.156653 -0.012425 -0.017647
v 0.320674 -0.015972 -0.017629
v 0.062184 0.389908 -0.294261
v -0.216553 0.330193 -0.077736
v -0.391027 -0.008531 -0.282848
v 0.226291 -0.013766 -0.282822
v 0.346593 0.278844 -0.229685
v -0.018121 -0.004172 -0.513454
v -0.133551 0.195373 0.261151
v -0.038782 -0.024836 0.552464
v 0.108096 0.218570 0.387914
v -0.368754 -0.007506 0.225594
vn -0.6468 0.7023 0.2974
vn 0.9490 -0.1084 0.2961
vn 0.5107 0.1687 0.8430
vn -0.0104 -0.9997 -0.0238
vn -0.0113 -0.9997 -0.0231
vn -0.0081 -0.9996 -0.0258
vn -0.0074 -0.9996 -0.0265
vn 0.9825 0.0440 0.1812
vn -0.1170 0.9636 0.2404
vn -0.5371 0.5380 0.6497
vn -0.0092 -0.9999 -0.0044
vn -0.0113 -0.9999 -0.0047
vn -0.0086 -0.9999 -0.0070
vn -0.0074 -1.0000 -0.0057
vn -0.0083 -0.9999 -0.0069
vn 0.3427 0.9344 0.0978
vn 0.0809 0.9293 0.3604
vn -0.7792 0.5653 -0.2708
vn 0.8950 -0.3096 -0.3211
vn 0.3487 0.4003 -0.8474
vn -0.6003 0.4787 -0.6407
vn -0.4186 0.6184 -0.6651
vn -0.0085 -0.9994 -0.0326
vn 0.6758 -0.1467 -0.7223
vn -0.3956 0.6661 0.6322
vn -0.5704 0.5552 0.6053
vn -0.2046 0.9281 0.3111
vn -0.0312 -0.9995 -0.0039
usemtl Rock.002
s 1
f 3//1 16//1 13//1
f 2//2 1//2 6//2
f 1//3 15//3 14//3
f 1//4 4//5 5//6
f 1//4 5//6 6//7
f 2//8 6//8 11//8
f 3//9 2//9 7//9
f 4//10 3//10 8//10
f 5//11 4//12 9//13
f 6//14 5//11 10//15
f 2//16 11//16 7//16
f 3//17 7//17 8//17
f 4//18 8//18 9//18
f 5//11 9//13 10//15
f 6//19 10//19 11//19
f 7//20 11//20 12//20
f 8//21 7//21 12//21
f 9//22 8//22 12//22
f 10//23 9//23 12//23
f 11//24 10//24 12//24
f 14//25 15//25 13//25
f 14//26 13//26 16//26
f 2//27 13//27 15//27
f 1//28 16//28 4//28
f 3//1 4//1 16//1
f 1//3 2//3 15//3
f 2//27 3//27 13//27
f 1//28 14//28 16//28
