# Blender v3.2.0 OBJ File: ''
# www.blender.org
mtllib Rock5.mtl
o Rock5_Icosphere.001
v 0.016777 -0.034400 0.274039
v -0.088883 0.277274 0.035761
v -0.360823 -0.010550 0.112180
v 0.267704 -0.030697 0.132228
v 0.247115 0.282593 -0.009565
v 0.025296 -0.022550 -0.250953
vn 0.0947 0.6247 0.7751
vn 0.4480 0.3929 0.8030
vn -0.3121 0.5080 0.8028
vn -0.0295 -0.9965 -0.0781
vn -0.1102 0.6647 -0.7390
vn -0.6192 0.4066 -0.6718
vn -0.0320 -0.9995 -0.0010
vn 0.8288 -0.1846 -0.5282
usemtl Rock.004
s 1
f 1//1 5//1 2//1
f 5//2 1//2 4//2
f 1//3 2//3 3//3
f 1//4 3//4 4//4
f 2//5 5//5 6//5
f 3//6 2//6 6//6
f 4//7 3//7 6//7
f 5//8 4//8 6//8
